# xmcd CD database file
#
# Track frame offsets:
#	150
#	11704
#	25475
#	38839
#	63436
#	75545
#	110935
#	126516
#	139709
#	170548
#	194452
#
# Disc length: 2742 seconds
#
# Revision: 0
# Processed by: cddbd v1.5.2PL0 Copyright (c) Steve Scherf et al.
# Submitted via: CDex 1.51
#
DISCID=9e0ab40b
DTITLE=Various Artist - On The Spot Vol.2 - A Peek at the 60's Danish Jazz Scene
DYEAR=2008
DGENRE=Jazz
TTITLE0=Jazz Kvintet 60 - Vacker Flicker
TTITLE1=Finn Mickelborgs Kvintet - Bennie's Groove
TTITLE2=Erik Moselholm, Bent Axen and Peter Wissing - Hilsen Fra Peter
TTITLE3=Finn Savery - Night and Day
TTITLE4=Louis Hjulmand Qartet - Opbrud
TTITLE5=Bent Jaedig - B's Waltz
TTITLE6=Max Leth - Taboo
TTITLE7=Cy, Maia and Robert - City Blues
TTITLE8=Sahib Shihab - Charade
TTITLE9=Bjarne Rostvold - Folk Music
TTITLE10=Pedro Biker - Wives and Lovers
EXTD=YEAR: 2008
EXTT0=
EXTT1=
EXTT2=
EXTT3=
EXTT4=
EXTT5=
EXTT6=
EXTT7=
EXTT8=
EXTT9=
EXTT10=
PLAYORDER=
